<?xml version="1.0" encoding="UTF-8"?>
<svg id="Laag_1" data-name="Laag 1" xmlns="http://www.w3.org/2000/svg" viewBox="0 0 214.6 214.85">
  <defs>
    <style>
      .cls-1 {
        fill: #ae9a64;
      }

      .cls-2 {
        fill: #265742;
      }
    </style>
  </defs>
  <rect class="cls-2" x="-8.22" y="-9.6" width="231.04" height="234.06"/>
  <g>
    <path class="cls-1" d="M124.44,99.2c-1.62-2.65-3.83-4.67-6.61-6.05,2.27-1.39,4.04-3.24,5.33-5.56,1.28-2.32,1.92-4.83,1.92-7.54,0-1.99-.39-3.9-1.18-5.73-.78-1.84-1.85-3.46-3.21-4.88-1.35-1.41-2.95-2.54-4.79-3.39-1.84-.84-3.84-1.26-6.01-1.26h-18.61v3.98h18.61c1.51,0,2.95.29,4.34.86,1.38.57,2.57,1.37,3.57,2.39.99,1.03,1.79,2.21,2.4,3.57.6,1.35.9,2.82.9,4.38s-.31,3.05-.9,4.47c-.6,1.41-1.4,2.63-2.4,3.66-.99,1.02-2.18,1.83-3.57,2.43-1.39.6-2.83.9-4.34.9h-18.61v3.98h19.33c1.68,0,3.29.33,4.79.99,1.51.66,2.82,1.57,3.93,2.71,1.11,1.14,1.99,2.47,2.62,3.97.63,1.51.95,3.1.95,4.79s-.32,3.37-.95,4.87c-.63,1.51-1.51,2.83-2.62,3.98-1.12,1.15-2.43,2.03-3.93,2.66-1.5.63-3.1.95-4.79.95h-51.48v3.98h51.53c2.24,0,4.33-.43,6.29-1.31,1.96-.87,3.68-2.05,5.16-3.52,1.49-1.48,2.65-3.21,3.49-5.2.84-1.99,1.26-4.12,1.26-6.41,0-3.13-.82-6.02-2.45-8.68Z"/>
    <rect class="cls-1" x="88.85" y="64.78" width="3.28" height="46.02"/>
    <path class="cls-1" d="M152.31,120.34h-24.13s-1.29,2.66-4.3,3.98h28.46"/>
    <g>
      <path class="cls-1" d="M63.18,132.55c.39,0,.76.08,1.09.23.33.15.62.36.86.62s.44.55.58.89.21.68.21,1.03c0,.46-.1.89-.3,1.28-.2.39-.48.72-.83.98.43.27.77.63,1.04,1.1s.4.95.4,1.46c0,.41-.08.79-.23,1.15-.16.36-.36.68-.62.94-.26.27-.57.48-.93.63-.36.16-.73.23-1.13.23h-4.16v-10.54h4.03ZM65,135.3c0-.26-.05-.49-.14-.71s-.23-.41-.39-.58c-.17-.17-.36-.3-.58-.39-.22-.1-.46-.14-.71-.14h-3.11v3.68h3.11c.26,0,.5-.05.71-.14.22-.1.41-.23.58-.39.17-.17.3-.36.39-.59.1-.23.14-.47.14-.73ZM63.3,142.17c.28,0,.54-.05.79-.15s.46-.25.64-.43c.18-.19.32-.4.42-.65.1-.25.15-.51.15-.8s-.05-.54-.15-.78c-.1-.25-.24-.46-.42-.65-.18-.19-.4-.34-.64-.45s-.51-.17-.79-.17h-3.24v4.08h3.24Z"/>
      <path class="cls-1" d="M74.91,132.18l4.4,10.85c-.15.04-.27.08-.35.1-.09.02-.16.04-.21.06-.05.02-.1.03-.15.04s-.1.02-.17.03l-1.78-4.19h-3.52l-.83,2.03c-.15.35-.3.72-.46,1.1-.16.38-.3.75-.43,1.09-.07-.02-.17-.05-.28-.07-.11-.03-.31-.07-.6-.14l4.38-10.9ZM76.28,138.22c-.12-.36-.3-.86-.54-1.49-.25-.63-.52-1.38-.83-2.26l-1.44,3.74h2.82Z"/>
      <path class="cls-1" d="M84.78,139.08v4.02h-.91v-10.54h3.02c.46,0,.88.09,1.27.27.39.18.73.42,1.01.73.29.3.51.65.68,1.04s.25.79.25,1.21c0,.32-.04.63-.13.94-.08.31-.21.59-.38.86-.17.26-.38.49-.62.7-.24.2-.51.37-.81.5.21.28.43.56.65.84.22.28.43.56.65.84l2.02,2.62h-1.17l-3.1-4.02h-2.42ZM84.78,133.48v4.67h2.1c.32,0,.62-.06.91-.18.28-.12.53-.29.73-.5.2-.21.36-.46.48-.74.12-.29.18-.59.18-.91s-.06-.62-.18-.9c-.12-.28-.28-.53-.48-.74-.2-.21-.45-.38-.73-.5-.28-.12-.59-.18-.91-.18h-2.1Z"/>
      <path class="cls-1" d="M100.04,132.55c.39,0,.76.08,1.09.23.33.15.62.36.86.62s.44.55.58.89.21.68.21,1.03c0,.46-.1.89-.3,1.28-.2.39-.48.72-.83.98.43.27.77.63,1.04,1.1s.4.95.4,1.46c0,.41-.08.79-.23,1.15-.16.36-.36.68-.62.94-.26.27-.57.48-.93.63-.36.16-.73.23-1.13.23h-4.16v-10.54h4.03ZM101.86,135.3c0-.26-.05-.49-.14-.71s-.23-.41-.39-.58c-.17-.17-.36-.3-.58-.39-.22-.1-.46-.14-.71-.14h-3.11v3.68h3.11c.26,0,.5-.05.71-.14.22-.1.41-.23.58-.39.17-.17.3-.36.39-.59.1-.23.14-.47.14-.73ZM100.16,142.17c.28,0,.54-.05.79-.15s.46-.25.64-.43c.18-.19.32-.4.42-.65.1-.25.15-.51.15-.8s-.05-.54-.15-.78c-.1-.25-.24-.46-.42-.65-.18-.19-.4-.34-.64-.45s-.51-.17-.79-.17h-3.24v4.08h3.24Z"/>
      <path class="cls-1" d="M111.77,132.18l4.4,10.85c-.15.04-.27.08-.35.1-.09.02-.16.04-.21.06-.05.02-.1.03-.15.04s-.1.02-.17.03l-1.78-4.19h-3.52l-.83,2.03c-.15.35-.3.72-.46,1.1-.16.38-.3.75-.43,1.09-.07-.02-.17-.05-.28-.07-.11-.03-.31-.07-.6-.14l4.38-10.9ZM113.14,138.22c-.12-.36-.3-.86-.54-1.49-.25-.63-.52-1.38-.83-2.26l-1.44,3.74h2.82Z"/>
      <path class="cls-1" d="M121.64,139.08v4.02h-.91v-10.54h3.02c.46,0,.88.09,1.27.27.39.18.73.42,1.01.73s.51.65.68,1.04c.17.39.25.79.25,1.21,0,.32-.04.63-.13.94-.09.31-.21.59-.38.86-.17.26-.38.49-.62.7-.24.2-.51.37-.81.5.21.28.43.56.65.84s.43.56.65.84l2.02,2.62h-1.17l-3.1-4.02h-2.42ZM121.64,133.48v4.67h2.1c.32,0,.62-.06.91-.18.28-.12.53-.29.73-.5.2-.21.36-.46.48-.74s.18-.59.18-.91-.06-.62-.18-.9c-.12-.28-.28-.53-.48-.74-.2-.21-.45-.38-.73-.5-.28-.12-.59-.18-.91-.18h-2.1Z"/>
      <path class="cls-1" d="M136.39,132.18l4.4,10.85c-.15.04-.27.08-.35.1-.09.02-.16.04-.21.06-.05.02-.1.03-.15.04s-.1.02-.17.03l-1.78-4.19h-3.52l-.83,2.03c-.15.35-.3.72-.46,1.1-.16.38-.3.75-.43,1.09-.07-.02-.17-.05-.28-.07-.11-.03-.31-.07-.6-.14l4.38-10.9ZM137.77,138.22c-.12-.36-.3-.86-.54-1.49-.25-.63-.52-1.38-.83-2.26l-1.44,3.74h2.82Z"/>
      <path class="cls-1" d="M152.33,140.16c0,.49-.1.93-.31,1.31-.21.38-.49.7-.85.96-.36.26-.77.45-1.25.58-.48.13-.98.2-1.51.2-.22,0-.47-.02-.75-.05-.28-.03-.56-.08-.86-.14-.29-.06-.59-.13-.88-.21-.29-.08-.57-.17-.84-.26l.38-.77.51.11c.13.03.28.07.45.11s.35.08.54.11c.19.03.38.06.58.09.19.03.37.04.53.04h.66c.35,0,.69-.05,1.01-.14s.6-.24.85-.42c.25-.19.44-.42.58-.69.14-.27.22-.58.22-.94,0-.15-.04-.31-.11-.5-.08-.18-.15-.33-.24-.45v.02c-.15-.2-.32-.37-.5-.49-.19-.12-.38-.22-.58-.28-.2-.06-.41-.11-.62-.14s-.43-.05-.65-.07c-.36-.02-.73-.06-1.1-.1-.37-.05-.73-.18-1.07-.39v.02c-.38-.21-.7-.52-.95-.93-.25-.41-.38-.86-.38-1.38,0-.7.26-1.31.78-1.81.52-.5,1.21-.84,2.07-1.02h-.02c.13-.02.32-.05.57-.07.25-.03.53-.04.84-.04.17,0,.37.02.59.05.22.04.46.08.7.13.24.05.48.12.71.19.24.07.45.15.64.22l-.37.86c-.28-.1-.53-.18-.76-.25s-.45-.12-.66-.16-.41-.07-.61-.09-.4-.03-.62-.03c-.33,0-.67.04-1.02.12s-.66.2-.95.36-.52.37-.71.62c-.19.26-.28.56-.28.91,0,.12.02.24.06.38.04.13.1.26.18.39s.16.25.26.37c.1.12.2.21.3.29.28.17.57.28.87.33.3.05.61.08.92.1.36.02.76.08,1.18.16.42.09.82.24,1.18.47.19.13.37.28.52.46s.29.37.4.57.2.42.26.63c.06.22.1.44.1.65Z"/>
    </g>
  </g>
</svg>